Coordinates
version=1
nRows=25
nColumns=41
inDegrees=yes

Units are S.I. units (second, meters, Newtons, ...)
If the header above contains a line with 'inDegrees', this indicates whether rotational values are in degrees (yes) or radians (no).

endheader
time	pelvis_tilt	pelvis_list	pelvis_rotation	pelvis_tx	pelvis_ty	pelvis_tz	hip_flexion_r	hip_adduction_r	hip_rotation_r	knee_angle_r	ankle_angle_r	subtalar_angle_r	mtp_angle_r	hip_flexion_l	hip_adduction_l	hip_rotation_l	knee_angle_l	ankle_angle_l	subtalar_angle_l	mtp_angle_l	L5_S1_Flex_Ext	L5_S1_Lat_Bending	L5_S1_axial_rotation	neck_flexion	neck_bending	neck_rotation	arm_flex_r	arm_add_r	arm_rot_r	elbow_flex_r	pro_sup_r	wrist_flex_r	wrist_dev_r	arm_flex_l	arm_add_l	arm_rot_l	elbow_flex_l	pro_sup_l	wrist_flex_l	wrist_dev_l
180.880000	0.054143	58.447605	-913.263947	0.003172	0.002045	-0.120213	149.999778	30.000000	0.000000	155.000000	0.000000	0.000000	0.000000	149.999778	-13.486394	0.000000	155.000000	0.000000	0.000000	0.000000	0.000063	-90.000000	33.388158	-28.647890	88.475188	-44.999991	1126.859170	-680.648415	2677.137526	123.368786	0.000000	-110.007897	35.000000	-317.396126	-315.092223	-907.915956	131.551521	91.529054	110.007897	12.780382
180.960000	-0.448001	60.321648	-910.653337	-0.012511	-0.018099	-0.112454	149.999778	30.000000	0.000000	155.000000	0.000000	0.000000	0.000000	149.999778	-9.655412	0.000000	155.000000	0.000000	0.000000	0.000000	-0.074758	-90.000000	90.000000	-28.647890	83.514709	-44.999991	1072.930945	-699.630133	2538.059171	119.402620	0.000000	-2.715691	-15.562569	-354.935086	-297.609599	-832.233163	100.150521	119.748179	66.037240	35.000000
181.040000	-0.524842	59.696357	-911.976248	-0.015272	-0.013751	-0.105775	149.999778	30.000000	0.000000	155.000000	0.000000	0.000000	0.000000	149.999778	-9.821924	0.000000	155.000000	0.000000	0.000000	0.000000	0.001132	-90.000000	13.306893	-28.647890	90.000000	-44.999991	1123.708621	-686.643804	2671.049061	109.184142	0.000000	110.007897	-25.000000	-338.017580	-338.066097	-975.492498	133.957057	80.238978	-36.255778	-3.381518
181.120000	-0.706117	56.965771	-910.796438	-0.012831	-0.007621	-0.108052	149.999778	30.000000	0.000000	155.000000	0.000000	0.000000	0.000000	149.999778	-10.642017	0.000000	155.000000	0.000000	0.000000	0.000000	0.260434	-90.000000	-90.000000	-28.647890	90.000000	-44.999991	1062.917866	-654.084871	2793.869619	106.835386	0.000000	110.007897	-25.000000	-353.873559	-354.981978	-971.618906	121.399031	119.748179	92.271974	14.232368
181.200000	-0.677538	54.447502	-910.955953	-0.006449	0.005588	-0.117466	149.999778	30.000000	0.000000	155.000000	0.000000	0.000000	0.000000	149.999778	-12.117308	0.000000	155.000000	0.000000	0.000000	0.000000	0.495740	-90.000000	-90.000000	-28.647890	90.000000	-44.999991	1040.865979	-663.403826	2838.777131	115.697717	90.711005	110.007897	13.856360	-374.996019	-359.917090	-1019.931544	119.450444	88.420336	110.007897	14.276643
181.280000	-0.707807	52.507750	-911.054088	-0.006871	0.011898	-0.120990	149.999778	30.000000	0.000000	155.000000	0.000000	0.000000	0.000000	149.999778	-11.194141	0.000000	155.000000	0.000000	0.000000	0.000000	0.511245	-90.000000	-90.000000	-28.647890	90.000000	-44.999991	1040.333423	-663.441988	2839.583963	116.516000	90.889346	110.007897	13.798628	-375.019013	-359.693658	-1020.813933	119.694495	88.878990	110.007897	13.954920
181.360000	-0.880675	51.323658	-910.426424	-0.015742	0.013552	-0.117042	149.999778	30.000000	0.000000	155.000000	0.000000	0.000000	0.000000	149.999778	-9.152562	0.000000	155.000000	0.000000	0.000000	0.000000	0.364619	-90.000000	-90.000000	-28.647890	90.000000	-44.999991	1039.209076	-662.199711	2836.961698	116.838478	90.787216	110.007897	13.728060	-374.236658	-359.806135	-1018.507123	120.558003	89.295936	110.007897	13.774794
181.440000	-0.918388	50.961250	-908.927258	-0.027111	0.013516	-0.112380	149.999778	30.000000	0.000000	155.000000	0.000000	0.000000	0.000000	149.999778	-8.025032	0.000000	155.000000	0.000000	0.000000	0.000000	0.161041	-90.000000	-90.000000	-28.647890	90.000000	-44.999991	1037.359356	-660.404721	2833.679469	117.632168	90.630776	110.007897	13.616373	-371.967501	-359.506480	-1012.180029	122.272511	89.956124	110.007897	13.559297
181.520000	-0.831450	50.899108	-907.669797	-0.033087	0.011415	-0.111344	149.999778	30.000000	0.000000	155.000000	0.000000	0.000000	0.000000	149.999778	-8.039158	0.000000	155.000000	0.000000	0.000000	0.000000	0.054119	-90.000000	-90.000000	-28.647890	90.000000	-44.999991	1035.846895	-659.313512	2832.358337	118.471005	90.652926	110.007897	13.550547	-370.263825	-358.798655	-1007.521205	123.571353	90.494439	110.007897	13.341588
181.600000	-0.802917	50.887824	-907.309919	-0.033184	0.007386	-0.112208	149.999778	30.000000	0.000000	155.000000	0.000000	0.000000	0.000000	149.999778	-8.400923	0.000000	155.000000	0.000000	0.000000	0.000000	0.070096	-90.000000	-90.000000	-28.647890	90.000000	-44.999991	1035.585112	-659.157297	2832.411116	118.842643	90.689889	110.007897	13.531501	-370.670164	-358.602683	-1008.113107	123.548896	90.541542	110.007897	13.282512
181.680000	-0.859719	50.870404	-907.549812	-0.031289	0.002794	-0.112829	149.999778	30.000000	0.000000	155.000000	0.000000	0.000000	0.000000	149.999778	-8.605934	0.000000	155.000000	0.000000	0.000000	0.000000	0.126512	-90.000000	-90.000000	-28.647890	90.000000	-44.999991	1035.879769	-659.171473	2832.309212	118.990335	90.776105	110.007897	13.533765	-370.873253	-358.618647	-1008.926980	123.304184	90.652079	110.007897	13.223165
181.760000	-0.879751	50.868243	-907.575473	-0.031039	-0.004072	-0.113000	149.999778	30.000000	0.000000	155.000000	0.000000	0.000000	0.000000	149.999778	-8.679626	0.000000	155.000000	0.000000	0.000000	0.000000	0.141533	-90.000000	-90.000000	-28.647890	90.000000	-44.999991	1035.927736	-658.872117	2831.537826	119.302906	90.824126	110.007897	13.517845	-368.870924	-358.289111	-1005.567699	123.784522	91.043471	110.007897	13.178650
181.840000	-0.866206	51.144360	-906.825929	-0.033776	-0.015519	-0.112330	149.999778	30.000000	0.000000	155.000000	0.000000	0.000000	0.000000	149.999778	-8.891545	0.000000	155.000000	0.000000	0.000000	0.000000	0.137844	-90.000000	-90.000000	-28.647890	90.000000	-44.999991	1036.020847	-658.361544	2829.897747	120.205084	90.773973	110.007897	13.476115	-368.506849	-357.692849	-1004.233420	124.211328	91.266565	110.007897	13.111898
181.920000	-0.837441	51.772777	-905.906850	-0.037178	-0.028142	-0.110281	149.999778	30.000000	0.000000	155.000000	0.000000	0.000000	0.000000	149.999778	-9.119878	0.000000	155.000000	0.000000	0.000000	0.000000	0.151600	-90.000000	-90.000000	-28.647890	90.000000	-44.999991	1036.830484	-657.846488	2827.373123	121.407410	90.647245	110.007897	13.449440	-371.158043	-357.494248	-1007.948522	123.393576	91.227790	110.007897	13.066463
182.000000	-0.781304	52.242996	-906.181936	-0.036325	-0.033398	-0.108923	149.999778	30.000000	0.000000	155.000000	0.000000	0.000000	0.000000	149.999778	-9.390878	0.000000	155.000000	0.000000	0.000000	0.000000	0.163777	-90.000000	-90.000000	-28.647890	90.000000	-44.999991	1038.152085	-657.559950	2825.312511	121.600287	90.621724	110.007897	13.479905	-370.438401	-357.443035	-1007.117414	122.581489	91.505229	110.007897	13.088682
182.080000	-0.721452	52.508791	-907.167231	-0.032473	-0.036869	-0.109991	149.999778	30.000000	0.000000	155.000000	0.000000	0.000000	0.000000	149.999778	-10.206062	0.000000	155.000000	0.000000	0.000000	0.000000	0.155174	-90.000000	-90.000000	-28.647890	90.000000	-44.999991	1038.801060	-657.613442	2825.059048	120.580355	90.808956	110.007897	13.557198	-365.439114	-356.413550	-999.556473	124.271934	91.987932	110.007897	13.070556
182.160000	-0.670275	54.053331	-905.244693	-0.039923	-0.068695	-0.109622	149.999778	30.000000	0.000000	155.000000	0.000000	0.000000	0.000000	149.999778	-11.990798	0.000000	155.000000	0.000000	0.000000	0.000000	0.142866	-90.000000	-90.000000	-28.647890	90.000000	-44.999991	1039.764119	-657.372305	2822.094308	121.993867	90.655758	110.007897	13.474893	-367.031978	-354.533308	-1000.294606	126.655839	91.790041	110.007897	13.041325
182.240000	-0.411672	58.165707	-902.643717	-0.047462	-0.136324	-0.101763	149.999778	30.000000	0.000000	153.856941	0.000000	0.000000	0.000000	146.988294	-14.633541	0.000000	152.007878	0.000000	0.000000	0.000000	0.195138	-90.000000	-90.000000	-28.647890	90.000000	-44.999991	1042.249771	-655.772799	2812.328592	128.294962	89.655987	110.007897	13.335429	-381.990850	-352.360447	-1017.164533	126.289115	90.825745	110.007897	13.089911
182.320000	-0.143581	62.614753	-905.801895	-0.029037	-0.183959	-0.089744	149.999778	30.000000	0.000000	151.724118	0.000000	0.000000	0.000000	138.929256	-17.502431	0.000000	151.958409	0.000000	0.000000	0.000000	0.339730	-90.000000	-90.000000	-28.647890	90.000000	-44.999991	1047.762101	-653.950165	2797.390653	135.009988	88.303998	110.007897	13.362031	-397.325296	-347.147211	-1031.704658	126.026166	90.284246	110.007897	13.210958
182.400000	0.438116	64.504022	-912.201019	-0.001617	-0.199420	-0.082726	146.262380	29.117840	0.000000	155.000000	0.000000	0.000000	0.000000	130.435842	-15.481796	0.000000	155.000000	0.000000	0.000000	0.000000	0.186869	-90.000000	-90.000000	-28.647890	90.000000	-44.999991	1060.543418	-653.046594	2777.360929	134.944513	87.326774	110.007897	13.250977	-373.156577	-345.292801	-996.401842	131.413773	92.590929	110.007897	13.684554
182.480000	0.607084	73.093475	-916.114637	0.030316	-0.236833	-0.025397	121.191602	22.676495	0.000000	155.000000	0.000000	0.000000	0.000000	115.122010	-5.716811	0.000000	155.000000	0.000000	0.000000	0.000000	0.000830	-90.000000	32.702623	-28.647890	90.000000	-44.999991	1118.241613	-699.914497	2626.906392	119.870818	119.748179	110.007897	35.000000	-334.136880	-335.001574	-961.281224	120.463816	119.748179	36.529266	35.000000
182.560000	0.184002	81.591874	-914.520979	0.000247	-0.407589	0.069989	99.602460	0.103792	0.000000	133.950779	0.000000	0.000000	0.000000	100.560808	6.824832	0.000000	142.468703	0.000000	0.000000	0.000000	0.001036	-90.000000	-41.840966	-28.647890	90.000000	-44.999991	1103.537812	-665.257938	2684.691745	98.089050	36.333029	-79.598240	4.113019	-373.328330	-348.206213	-967.469039	136.597287	74.406967	110.007897	8.436681
182.640000	0.177063	97.471947	-907.257110	-0.098722	-0.686406	0.146749	56.009429	-27.327033	0.000000	57.393998	0.000000	0.000000	0.000000	84.598311	27.419812	0.000000	108.856099	0.000000	0.000000	0.000000	0.403714	-79.337776	-40.707312	-28.647890	80.742125	-44.999991	1086.254168	-659.111729	2715.595018	117.873240	40.775944	-110.007897	35.000000	-440.075890	-311.951471	-768.325006	98.076178	94.404207	110.007897	13.661376
182.720000	2.288546	130.643509	-902.858645	-0.215531	-0.879399	0.103856	11.532671	-12.713552	0.000000	5.810904	0.000000	0.000000	0.000000	34.287626	30.000000	0.000000	57.971138	0.000000	0.000000	0.000000	2.287647	-38.750907	-8.522998	-28.647890	79.113617	-44.999991	1090.702013	-668.082044	2688.951234	93.658214	87.034131	-110.007897	0.331654	-411.776486	-342.493071	-744.480647	37.346284	119.748179	-4.018610	20.563043
182.800000	2.239786	134.625762	-901.896464	-0.238723	-0.865306	0.034796	7.150837	-9.066884	0.000000	4.531296	0.000000	0.000000	0.000000	14.754245	23.854472	0.000000	29.214510	0.000000	0.000000	0.000000	2.313101	-32.219275	-24.480822	-28.647890	39.715982	-44.999991	1087.046732	-670.344880	2697.734032	89.699792	106.849487	-110.007897	28.942972	-407.712000	-325.598540	-728.595467	0.000000	119.748179	110.007897	35.000000
